<svg id="icons" height="512" viewBox="0 0 60 60" width="512" xmlns="http://www.w3.org/2000/svg"><path d="m46 59h12a1 1 0 0 0 1-1v-32a2 2 0 0 0 -2-2h-12z" fill="#b0ccdd"/><path d="m14 59h-12a1 1 0 0 1 -1-1v-32a2 2 0 0 1 2-2h12z" fill="#b0ccdd"/><path d="m14 4h32v55h-32z" fill="#d3e4f4"/><path d="m26 59v-11a1 1 0 0 1 1-1h6a1 1 0 0 1 1 1v11z" fill="#5e7d84"/><g fill="#4184a9"><rect height="4" rx="1" width="34" x="13" y="1"/><path d="m6 32a1 1 0 0 1 -1-1v-3a1 1 0 0 1 2 0v3a1 1 0 0 1 -1 1z"/><path d="m10 32a1 1 0 0 1 -1-1v-3a1 1 0 0 1 2 0v3a1 1 0 0 1 -1 1z"/><path d="m6 39a1 1 0 0 1 -1-1v-3a1 1 0 0 1 2 0v3a1 1 0 0 1 -1 1z"/><path d="m10 39a1 1 0 0 1 -1-1v-3a1 1 0 0 1 2 0v3a1 1 0 0 1 -1 1z"/><path d="m6 46a1 1 0 0 1 -1-1v-3a1 1 0 0 1 2 0v3a1 1 0 0 1 -1 1z"/><path d="m10 46a1 1 0 0 1 -1-1v-3a1 1 0 0 1 2 0v3a1 1 0 0 1 -1 1z"/><path d="m6 53a1 1 0 0 1 -1-1v-3a1 1 0 0 1 2 0v3a1 1 0 0 1 -1 1z"/><path d="m10 53a1 1 0 0 1 -1-1v-3a1 1 0 0 1 2 0v3a1 1 0 0 1 -1 1z"/><path d="m18 53a1 1 0 0 1 -1-1v-3a1 1 0 0 1 2 0v3a1 1 0 0 1 -1 1z"/><path d="m22 53a1 1 0 0 1 -1-1v-3a1 1 0 0 1 2 0v3a1 1 0 0 1 -1 1z"/><path d="m38 53a1 1 0 0 1 -1-1v-3a1 1 0 0 1 2 0v3a1 1 0 0 1 -1 1z"/><path d="m42 53a1 1 0 0 1 -1-1v-3a1 1 0 0 1 2 0v3a1 1 0 0 1 -1 1z"/><path d="m54 32a1 1 0 0 1 -1-1v-3a1 1 0 0 1 2 0v3a1 1 0 0 1 -1 1z"/><path d="m50 32a1 1 0 0 1 -1-1v-3a1 1 0 0 1 2 0v3a1 1 0 0 1 -1 1z"/><path d="m54 39a1 1 0 0 1 -1-1v-3a1 1 0 0 1 2 0v3a1 1 0 0 1 -1 1z"/><path d="m50 39a1 1 0 0 1 -1-1v-3a1 1 0 0 1 2 0v3a1 1 0 0 1 -1 1z"/><path d="m54 46a1 1 0 0 1 -1-1v-3a1 1 0 0 1 2 0v3a1 1 0 0 1 -1 1z"/><path d="m50 46a1 1 0 0 1 -1-1v-3a1 1 0 0 1 2 0v3a1 1 0 0 1 -1 1z"/><path d="m54 53a1 1 0 0 1 -1-1v-3a1 1 0 0 1 2 0v3a1 1 0 0 1 -1 1z"/><path d="m50 53a1 1 0 0 1 -1-1v-3a1 1 0 0 1 2 0v3a1 1 0 0 1 -1 1z"/></g><path d="m29 34h2v5h-2z" fill="#9ebbce"/><path d="m37 39h-6a1 1 0 0 0 0 2h6a1 1 0 0 0 0-2z" fill="#9ebbce"/><path d="m29 39h-6a1 1 0 0 0 0 2h6a1 1 0 0 0 0-2z" fill="#9ebbce"/><circle cx="30" cy="40" fill="#5e7d84" r="2"/><rect fill="#5e7d84" height="8" rx="2" width="24" x="18" y="27"/><rect fill="#4e696d" height="8" rx="2" width="24" x="18" y="19"/><rect fill="#5e7d84" height="8" rx="2" width="24" x="18" y="11"/><path d="m38 32h-4a1 1 0 0 1 0-2h4a1 1 0 0 1 0 2z" fill="#425c5e"/><path d="m38 24h-4a1 1 0 0 1 0-2h4a1 1 0 0 1 0 2z" fill="#395254"/><path d="m23 16h-1a1 1 0 0 1 0-2h1a1 1 0 0 1 0 2z" fill="#78edfd"/><path d="m28 16h-1a1 1 0 0 1 0-2h1a1 1 0 0 1 0 2z" fill="#fde05e"/><path d="m23 24h-1a1 1 0 0 1 0-2h1a1 1 0 0 1 0 2z" fill="#78edfd"/><path d="m28 24h-1a1 1 0 0 1 0-2h1a1 1 0 0 1 0 2z" fill="#fde05e"/><path d="m23 32h-1a1 1 0 0 1 0-2h1a1 1 0 0 1 0 2z" fill="#78edfd"/><path d="m28 32h-1a1 1 0 0 1 0-2h1a1 1 0 0 1 0 2z" fill="#fde05e"/><path d="m38 16h-4a1 1 0 0 1 0-2h4a1 1 0 0 1 0 2z" fill="#425c5e"/></svg>