<svg id="Capa_1" enable-background="new 0 0 512 512" height="512" viewBox="0 0 512 512" width="512" xmlns="http://www.w3.org/2000/svg"><g><path d="m486.245 368h-204.49c-14.224 0-25.755-11.531-25.755-25.755v-268.49c0-14.224 11.531-25.755 25.755-25.755h204.491c14.223 0 25.754 11.531 25.754 25.755v268.491c0 14.223-11.531 25.754-25.755 25.754z" fill="#00366d"/><g fill="#82aee3"><path d="m472.274 144h-176.548c-4.267 0-7.726-3.459-7.726-7.726v-48.548c0-4.267 3.459-7.726 7.726-7.726h176.547c4.267 0 7.726 3.459 7.726 7.726v48.547c.001 4.268-3.458 7.727-7.725 7.727z"/><path d="m472.274 240h-176.548c-4.267 0-7.726-3.459-7.726-7.726v-48.547c0-4.267 3.459-7.726 7.726-7.726h176.547c4.267 0 7.726 3.459 7.726 7.726v48.547c.001 4.267-3.458 7.726-7.725 7.726z"/><path d="m472.274 336h-176.548c-4.267 0-7.726-3.459-7.726-7.726v-48.547c0-4.267 3.459-7.726 7.726-7.726h176.547c4.267 0 7.726 3.459 7.726 7.726v48.547c.001 4.267-3.458 7.726-7.725 7.726z"/></g><path d="m230.245 368h-204.49c-14.224 0-25.755-11.531-25.755-25.755v-268.49c0-14.224 11.531-25.755 25.755-25.755h204.491c14.223 0 25.754 11.531 25.754 25.755v268.491c0 14.223-11.531 25.754-25.755 25.754z" fill="#00366d"/><path d="m216.274 144h-176.548c-4.267 0-7.726-3.459-7.726-7.726v-48.548c0-4.267 3.459-7.726 7.726-7.726h176.547c4.267 0 7.726 3.459 7.726 7.726v48.547c.001 4.268-3.458 7.727-7.725 7.727z" fill="#82aee3"/><path d="m216.274 240h-176.548c-4.267 0-7.726-3.459-7.726-7.726v-48.547c0-4.267 3.459-7.726 7.726-7.726h176.547c4.267 0 7.726 3.459 7.726 7.726v48.547c.001 4.267-3.458 7.726-7.725 7.726z" fill="#82aee3"/><path d="m216.274 336h-176.548c-4.267 0-7.726-3.459-7.726-7.726v-48.547c0-4.267 3.459-7.726 7.726-7.726h176.547c4.267 0 7.726 3.459 7.726 7.726v48.547c.001 4.267-3.458 7.726-7.725 7.726z" fill="#82aee3"/><path d="m272 464v-96h-32v96h-227.123c-7.112 0-12.877 5.765-12.877 12.877v6.245c0 7.113 5.765 12.878 12.877 12.878h486.245c7.112 0 12.877-5.765 12.877-12.877v-6.245c0-7.112-5.765-12.877-12.877-12.877h-227.122z" fill="#01c0fa"/><path d="m358.245 368h-204.49c-14.224 0-25.755-11.531-25.755-25.755v-316.49c0-14.224 11.531-25.755 25.755-25.755h204.491c14.223 0 25.754 11.531 25.754 25.755v316.491c0 14.223-11.531 25.754-25.755 25.754z" fill="#0055a3"/><path d="m365.112.926c.227 1.375.345 2.786.345 4.225v288.522c0 29.671-24.053 53.723-53.723 53.723h-176.523c-2.378 0-4.68-.323-6.866-.926 2.016 12.214 12.625 21.53 25.41 21.53h204.491c14.223 0 25.754-11.531 25.754-25.755v-316.49c0-11.847-7.998-21.824-18.888-24.829z" fill="#004281"/><path d="m344.274 96h-176.548c-4.267 0-7.726-3.459-7.726-7.726v-48.548c0-4.267 3.459-7.726 7.726-7.726h176.547c4.267 0 7.726 3.459 7.726 7.726v48.547c.001 4.268-3.458 7.727-7.725 7.727z" fill="#b2caec"/><path d="m344.274 192h-176.548c-4.267 0-7.726-3.459-7.726-7.726v-48.547c0-4.267 3.459-7.726 7.726-7.726h176.547c4.267 0 7.726 3.459 7.726 7.726v48.547c.001 4.267-3.458 7.726-7.725 7.726z" fill="#b2caec"/><path d="m344.274 288h-176.548c-4.267 0-7.726-3.459-7.726-7.726v-48.547c0-4.267 3.459-7.726 7.726-7.726h176.547c4.267 0 7.726 3.459 7.726 7.726v48.547c.001 4.267-3.458 7.726-7.725 7.726z" fill="#b2caec"/><path d="m288 442.849v-13.972c0-7.112-5.765-12.877-12.877-12.877h-38.245c-7.112 0-12.877 5.765-12.877 12.877v13.972c0 2.845-2.306 5.151-5.151 5.151h-13.972c-7.112 0-12.877 5.765-12.877 12.877v38.245c0 7.112 5.765 12.877 12.877 12.877h102.245c7.112 0 12.877-5.765 12.877-12.877v-38.245c0-7.112-5.765-12.877-12.877-12.877h-13.972c-2.845 0-5.151-2.306-5.151-5.151z" fill="#0055a3"/><path d="m96 119.5h-32c-4.142 0-7.5-3.358-7.5-7.5s3.358-7.5 7.5-7.5h32c4.142 0 7.5 3.358 7.5 7.5s-3.358 7.5-7.5 7.5z" fill="#528fd8"/><path d="m96 215.5h-32c-4.142 0-7.5-3.358-7.5-7.5s3.358-7.5 7.5-7.5h32c4.142 0 7.5 3.358 7.5 7.5s-3.358 7.5-7.5 7.5z" fill="#528fd8"/><path d="m96 311.5h-32c-4.142 0-7.5-3.358-7.5-7.5s3.358-7.5 7.5-7.5h32c4.142 0 7.5 3.358 7.5 7.5s-3.358 7.5-7.5 7.5z" fill="#528fd8"/><path d="m224 71.5h-32c-4.142 0-7.5-3.358-7.5-7.5s3.358-7.5 7.5-7.5h32c4.142 0 7.5 3.358 7.5 7.5s-3.358 7.5-7.5 7.5z" fill="#82aee3"/><path d="m224 167.5h-32c-4.142 0-7.5-3.358-7.5-7.5s3.358-7.5 7.5-7.5h32c4.142 0 7.5 3.358 7.5 7.5s-3.358 7.5-7.5 7.5z" fill="#82aee3"/><path d="m224 263.5h-32c-4.142 0-7.5-3.358-7.5-7.5s3.358-7.5 7.5-7.5h32c4.142 0 7.5 3.358 7.5 7.5s-3.358 7.5-7.5 7.5z" fill="#82aee3"/><path d="m240 341.5h-32c-4.142 0-7.5-3.358-7.5-7.5s3.358-7.5 7.5-7.5h32c4.142 0 7.5 3.358 7.5 7.5s-3.358 7.5-7.5 7.5z" fill="#004281"/><g><g><circle cx="448" cy="112" fill="#ffd15b" r="7.5"/></g></g><g><g><circle cx="416" cy="112" fill="#fd6930" r="7.5"/></g></g><g><g><circle cx="448" cy="208" fill="#fd6930" r="7.5"/></g></g><g><g><circle cx="416" cy="208" fill="#ffd15b" r="7.5"/></g></g><g><g><circle cx="448" cy="304" fill="#ffd15b" r="7.5"/></g></g><g><g><circle cx="416" cy="304" fill="#fd6930" r="7.5"/></g></g><g><g><g><circle cx="320" cy="64" fill="#ffd15b" r="7.5"/></g></g></g><g><g><g><circle cx="288" cy="64" fill="#fd6930" r="7.5"/></g></g></g><g><g><g><circle cx="288" cy="160" fill="#ffd15b" r="7.5"/></g></g></g><g><g><circle cx="320" cy="160" fill="#fd6930" r="7.5"/></g></g><g><g><circle cx="320" cy="256" fill="#ffd15b" r="7.5"/></g></g><g><g><g><circle cx="288" cy="256" fill="#fd6930" r="7.5"/></g></g></g><g><g><g><circle cx="175.677" cy="334.323" fill="#80d261" r="7.5"/></g></g></g></g></svg>