<svg xmlns="http://www.w3.org/2000/svg" version="1.1" xmlns:xlink="http://www.w3.org/1999/xlink" width="512" height="512" x="0" y="0" viewBox="0 0 297.613 297.613" style="enable-background:new 0 0 512 512" xml:space="preserve" class=""><g><circle cx="15.279" cy="14.83" r="14.83" fill="#ffffff" opacity="1" data-original="#000000" class=""></circle><circle cx="59.32" cy="59.769" r="14.83" fill="#ffffff" opacity="1" data-original="#000000" class=""></circle><circle cx="59.32" cy="14.83" r="14.83" fill="#ffffff" opacity="1" data-original="#000000" class=""></circle><circle cx="104.261" cy="59.769" r="14.83" fill="#ffffff" opacity="1" data-original="#000000" class=""></circle><circle cx="104.261" cy="103.81" r="14.83" fill="#ffffff" opacity="1" data-original="#000000" class=""></circle><circle cx="104.261" cy="14.83" r="14.83" fill="#ffffff" opacity="1" data-original="#000000" class=""></circle><circle cx="148.302" cy="59.769" r="14.83" fill="#ffffff" opacity="1" data-original="#000000" class=""></circle><circle cx="148.302" cy="103.81" r="14.83" fill="#ffffff" opacity="1" data-original="#000000" class=""></circle><circle cx="148.302" cy="14.83" r="14.83" fill="#ffffff" opacity="1" data-original="#000000" class=""></circle><circle cx="192.343" cy="59.769" r="14.83" fill="#ffffff" opacity="1" data-original="#000000" class=""></circle><circle cx="192.343" cy="103.81" r="14.83" fill="#ffffff" opacity="1" data-original="#000000" class=""></circle><circle cx="148.302" cy="147.852" r="14.83" fill="#ffffff" opacity="1" data-original="#000000" class=""></circle><circle cx="192.343" cy="147.852" r="14.83" fill="#ffffff" opacity="1" data-original="#000000" class=""></circle><circle cx="104.261" cy="192.79" r="14.831" fill="#ffffff" opacity="1" data-original="#000000" class=""></circle><circle cx="148.302" cy="192.79" r="14.831" fill="#ffffff" opacity="1" data-original="#000000" class=""></circle><circle cx="192.343" cy="192.79" r="14.831" fill="#ffffff" opacity="1" data-original="#000000" class=""></circle><circle cx="59.32" cy="236.887" r="14.83" fill="#ffffff" opacity="1" data-original="#000000" class=""></circle><circle cx="104.261" cy="236.887" r="14.83" fill="#ffffff" opacity="1" data-original="#000000" class=""></circle><circle cx="148.302" cy="236.887" r="14.83" fill="#ffffff" opacity="1" data-original="#000000" class=""></circle><circle cx="192.343" cy="236.887" r="14.83" fill="#ffffff" opacity="1" data-original="#000000" class=""></circle><circle cx="238.238" cy="103.81" r="14.83" fill="#ffffff" opacity="1" data-original="#000000" class=""></circle><circle cx="238.238" cy="147.852" r="14.83" fill="#ffffff" opacity="1" data-original="#000000" class=""></circle><circle cx="238.238" cy="192.79" r="14.831" fill="#ffffff" opacity="1" data-original="#000000" class=""></circle><circle cx="15.279" cy="282.782" r="14.831" fill="#ffffff" opacity="1" data-original="#000000" class=""></circle><circle cx="59.32" cy="282.782" r="14.831" fill="#ffffff" opacity="1" data-original="#000000" class=""></circle><circle cx="104.261" cy="282.782" r="14.831" fill="#ffffff" opacity="1" data-original="#000000" class=""></circle><circle cx="148.302" cy="282.782" r="14.831" fill="#ffffff" opacity="1" data-original="#000000" class=""></circle><circle cx="282.334" cy="147.852" r="14.83" fill="#ffffff" opacity="1" data-original="#000000" class=""></circle></g></svg>