<svg id="Icons" height="512" viewBox="0 0 60 60" width="512" xmlns="http://www.w3.org/2000/svg"><path d="m55 36v-33a2.006 2.006 0 0 0 -2-2h-50a2.006 2.006 0 0 0 -2 2v44a2.006 2.006 0 0 0 2 2h22.52z" fill="#f77754"/><path d="m55 14v-2h-24v-11h-2v11h-28v2h14v10h-14v2h28v10h-28v2h14v11h2v-11h14v-12h24v-2h-10v-10zm-12 10h-26v-10h26z" fill="#bf5540"/><path d="m39.923 17.1a24.417 24.417 0 0 1 11.855 16.15.653.653 0 0 0 1.16.256 9.368 9.368 0 0 0 1.362-2.976.653.653 0 0 1 1.174-.171 22.16 22.16 0 0 1 3.526 11.781c0 9.312-7.835 16.86-17.5 16.86s-17.5-7.548-17.5-16.86a30.1 30.1 0 0 1 1-7.625.719.719 0 0 1 1.359-.057 6.741 6.741 0 0 0 1.592 2.342.73.73 0 0 0 1.229-.518c.03-1.864.546-4.385 3.57-7.452 4.091-4.148 5.886-5.745 6.1-11.142a.707.707 0 0 1 1.073-.588z" fill="#d33957"/><path d="m40.535 31.068a16.651 16.651 0 0 1 7.87 13.741.481.481 0 0 0 .831.3 5.636 5.636 0 0 0 1.273-2.5.468.468 0 0 1 .836-.15 9.894 9.894 0 0 1 1.655 5.556 11.215 11.215 0 0 1 -11.44 10.977c-5.28 0-10.56-3.56-10.56-9.622 0-5.644 2.866-8.027 4.84-10.02 2.673-2.7 3.847-4.39 3.989-7.9a.466.466 0 0 1 .706-.382z" fill="#efc929"/></svg>