<?xml version="1.0" encoding="UTF-8"?>
<svg xmlns="http://www.w3.org/2000/svg" id="icons" viewBox="0 0 60 60" width="512" height="512"><path d="M8.01,37.54a10,10,0,0,1,.78-19.29.493.493,0,0,0,.38-.59,8.288,8.288,0,0,1-.13-2.45,7.988,7.988,0,0,1,11-6.61.5.5,0,0,0,.63-.23,14.022,14.022,0,0,1,26.29,5.19.5.5,0,0,0,.48.45A12.006,12.006,0,0,1,52,36.92Z" fill="#60dcdd"/><circle cx="30" cy="37" r="22" fill="#4184a9"/><path d="M30,14A23,23,0,1,0,53,37,23.026,23.026,0,0,0,30,14Zm1,12.985a76.1,76.1,0,0,0,7.606-.469A38.571,38.571,0,0,1,39.975,36H31Zm0-2V16.11c2.824.621,5.335,3.846,6.985,8.461Q34.558,24.938,31,24.985ZM29,16.11v8.875q-3.553-.045-6.985-.414C23.665,19.956,26.176,16.731,29,16.11Zm0,10.875V36H20.025a38.571,38.571,0,0,1,1.369-9.484A76.1,76.1,0,0,0,29,26.985ZM18.013,36H9.051A20.852,20.852,0,0,1,12.8,24.994q3.2.783,6.553,1.26A40.937,40.937,0,0,0,18.013,36Zm0,2a40.937,40.937,0,0,0,1.335,9.746Q16,48.223,12.8,49.005A20.848,20.848,0,0,1,9.051,38Zm2.012,0H29v9.015a76.1,76.1,0,0,0-7.606.468A38.556,38.556,0,0,1,20.025,38ZM29,49.015V57.89c-2.824-.621-5.335-3.846-6.985-8.461Q25.441,49.06,29,49.015Zm2,8.875V49.015q3.555.045,6.985.414C36.335,54.044,33.824,57.269,31,57.89Zm0-10.875V38h8.975a38.556,38.556,0,0,1-1.369,9.483A76.1,76.1,0,0,0,31,47.015ZM41.987,38h8.962a20.848,20.848,0,0,1-3.744,11.005q-3.2-.782-6.553-1.259A40.937,40.937,0,0,0,41.987,38Zm0-2a40.937,40.937,0,0,0-1.335-9.746q3.352-.477,6.553-1.26A20.852,20.852,0,0,1,50.949,36Zm3.859-12.738q-2.826.649-5.782,1.054a20.361,20.361,0,0,0-4.195-7.465A21.016,21.016,0,0,1,45.846,23.262ZM24.131,16.851a20.361,20.361,0,0,0-4.195,7.465q-2.952-.406-5.782-1.054A21.016,21.016,0,0,1,24.131,16.851ZM14.153,50.737q2.827-.648,5.783-1.054a20.338,20.338,0,0,0,4.2,7.466A21.021,21.021,0,0,1,14.153,50.737Zm21.716,6.412a20.338,20.338,0,0,0,4.2-7.466q2.952.407,5.783,1.054A21.021,21.021,0,0,1,35.869,57.149Z" fill="#5498c8"/></svg>
