<svg id="Icons" viewBox="0 0 60 60" xmlns="http://www.w3.org/2000/svg"><path d="m47 6v48c0 2.76-2.24 5-5 5h-24c-1.72 0-3.25-.88-4.15-2.2-.53-.8-.85-1.76-.85-2.8v-48c0-2.76 2.24-5 5-5h24c2.38 0 4.38 1.67 4.88 3.9.08.36.12.72.12 1.1z" fill="#35a5f9"/><path d="m41 2c-1.105 0-2 .895-2 2v1c0 1.105-.895 2-2 2h-14c-1.105 0-2-.895-2-2v-1c0-1.105-.895-2-2-2v-1h22z" fill="#204272"/><path d="m35 56h-10c-.553 0-1-.447-1-1s.447-1 1-1h10c.553 0 1 .447 1 1s-.447 1-1 1z" fill="#2879d1"/><path d="m47 6v12.86l-34 23.05v-14.06l33.88-22.95c.08.36.12.72.12 1.1z" fill="#50bcff"/><path d="m47 25.89v8.44l-33.15 22.47c-.53-.8-.85-1.76-.85-2.8v-5.06z" fill="#50bcff"/><path d="m42 60h-24c-3.309 0-6-2.691-6-6v-48c0-3.309 2.691-6 6-6h24c3.309 0 6 2.691 6 6v48c0 3.309-2.691 6-6 6zm-24-58c-2.206 0-4 1.794-4 4v48c0 2.206 1.794 4 4 4h24c2.206 0 4-1.794 4-4v-48c0-2.206-1.794-4-4-4z" fill="#204272"/></svg>