<svg id="Icons" height="512" viewBox="0 0 60 60" width="512" xmlns="http://www.w3.org/2000/svg"><path d="m28 8h4v5.58h-4z" fill="#182949"/><path d="m34 5a4 4 0 1 1 -4-4 3.98 3.98 0 0 1 4 4z" fill="#223a75"/><path d="m14.416 13.626h4v5.58h-4z" fill="#182949" transform="matrix(.707 -.707 .707 .707 -6.8 16.416)"/><path d="m15.151 9.494a4 4 0 1 1 -5.657 0 3.98 3.98 0 0 1 5.657 0z" fill="#223a75"/><path d="m8 28h5.58v4h-5.58z" fill="#182949"/><path d="m5 26a4 4 0 1 1 -4 4 3.98 3.98 0 0 1 4-4z" fill="#223a75"/><path d="m13.626 41.584h5.58v4h-5.58z" fill="#182949" transform="matrix(.707 -.707 .707 .707 -26.01 24.374)"/><path d="m9.494 44.849a4 4 0 1 1 0 5.657 3.98 3.98 0 0 1 0-5.657z" fill="#223a75"/><path d="m28 46.42h4v5.58h-4z" fill="#182949"/><path d="m26 55a4 4 0 1 1 4 4 3.98 3.98 0 0 1 -4-4z" fill="#223a75"/><path d="m41.584 40.794h4v5.58h-4z" fill="#182949" transform="matrix(.707 -.707 .707 .707 -18.053 43.584)"/><path d="m44.849 50.506a4 4 0 1 1 5.657 0 3.98 3.98 0 0 1 -5.657 0z" fill="#223a75"/><path d="m46.42 28h5.58v4h-5.58z" fill="#182949"/><path d="m55 34a4 4 0 1 1 4-4 3.98 3.98 0 0 1 -4 4z" fill="#223a75"/><path d="m40.794 14.416h5.58v4h-5.58z" fill="#182949" transform="matrix(.707 -.707 .707 .707 1.157 35.626)"/><path d="m50.506 15.151a4 4 0 1 1 0-5.657 3.98 3.98 0 0 1 0 5.657z" fill="#223a75"/><circle cx="30" cy="30" fill="#223a75" r="17"/><path d="m31.841 20.132 2.3 4.617 5.149.74a2.025 2.025 0 0 1 1.137 3.465l-3.725 3.593.879 5.074a2.048 2.048 0 0 1 -2.978 2.141l-4.603-2.395-4.606 2.4a2.048 2.048 0 0 1 -2.978-2.141l.879-5.074-3.725-3.598a2.025 2.025 0 0 1 1.137-3.465l5.149-.74 2.3-4.617a2.063 2.063 0 0 1 3.685 0z" fill="#e5bc38"/></svg>