<svg clip-rule="evenodd" fill-rule="evenodd" height="512" stroke-linejoin="round" stroke-miterlimit="2" viewBox="0 0 48 48" width="512" xmlns="http://www.w3.org/2000/svg" xmlns:xlink="http://www.w3.org/1999/xlink"><linearGradient id="_Linear1" gradientTransform="matrix(48 48 -48 48 0 648)" gradientUnits="userSpaceOnUse" x1="0" x2="1" y1="0" y2="0"><stop offset="0" stop-color="#79c5d4"/><stop offset="1" stop-color="#276dd7"/></linearGradient><g transform="translate(0 -648)"><g id="SOLID-GRADIENT"><path d="m23.001 690.063h4.936c.614 0 1.202-.244 1.636-.678 2.136-2.136 12.561-12.562 15.75-15.75.903-.903.903-2.367 0-3.27l-15.75-15.75c-.434-.434-1.022-.678-1.636-.677-.978 0-3.106 0-4.936-.001-.935 0-1.779.564-2.137 1.428-.357.864-.16 1.859.502 2.52l13.894 13.894c.122.122.122.32 0 .442 0 0-13.894 13.894-13.894 13.894-.662.661-.859 1.656-.502 2.52.358.864 1.202 1.428 2.137 1.428zm-18.688 0h4.936c.613 0 1.202-.244 1.635-.678l15.75-15.75c.903-.903.903-2.367 0-3.27l-15.75-15.75c-.433-.434-1.022-.678-1.635-.677-.979 0-3.107 0-4.936-.001-.936 0-1.779.564-2.137 1.428s-.16 1.859.501 2.52l13.894 13.894c.122.122.122.32 0 .442 0 0-13.894 13.894-13.894 13.894-.661.661-.859 1.656-.501 2.52s1.201 1.428 2.137 1.428z" fill="url(#_Linear1)"/></g></g></svg>