<svg clip-rule="evenodd" fill-rule="evenodd" height="7.111in" image-rendering="optimizeQuality" shape-rendering="geometricPrecision" text-rendering="geometricPrecision" viewBox="0 0 7111 7111" width="7.111in" xmlns="http://www.w3.org/2000/svg"><g id="Layer_x0020_1"><g id="_628898024"><path d="m4405 6261c-181 0-362-69-500-206-276-276-276-725 0-1000l792-792h-3013v-1415h3013l-792-792c-276-275-276-724 0-1000 275-275 724-275 1000 0l1998 2000c277 276 277 723 0 1000l-1998 1999c-138 137-319 206-500 206z" fill="#ffa725"/><g fill="#fd9925"><path d="m1197 4263c-46 0-83-38-83-84v-1247c0-110 166-110 166 0v1247c0 46-37 84-83 84z"/><path d="m826 4155c-46 0-83-37-83-83v-1033c0-109 166-109 166 0v1033c0 46-37 83-83 83z"/><path d="m455 4066c-46 0-83-37-83-83v-855c0-109 166-109 166 0v855c0 46-37 83-83 83z"/><path d="m84 3984c-46 0-83-38-83-84v-689c0-110 166-110 166 0v689c0 46-37 84-83 84z"/></g></g></g></svg>