<svg id="Layer_1" enable-background="new 0 0 512 512" height="512" viewBox="0 0 512 512" width="512" xmlns="http://www.w3.org/2000/svg"><path d="m502.628 141.262-86.635 86.635c-6.249 6.249-14.438 9.373-22.628 9.373s-16.379-3.124-22.628-9.373c-12.496-12.497-12.496-32.758 0-45.255l32.008-32.007h-335.495c-17.673 0-32-14.327-32-32s14.327-32 32-32h335.495l-32.008-32.007c-12.496-12.497-12.496-32.758 0-45.255 12.498-12.497 32.758-12.497 45.256 0l86.635 86.635c12.496 12.496 12.496 32.758 0 45.254zm-75.378 220.103h-317.995l32.008-32.007c12.496-12.497 12.496-32.758 0-45.255-12.498-12.497-32.758-12.497-45.256 0l-86.635 86.635c-12.496 12.497-12.496 32.758 0 45.255l86.635 86.635c6.249 6.249 14.438 9.373 22.628 9.373s16.379-3.124 22.628-9.373c12.496-12.497 12.496-32.758 0-45.255l-32.008-32.007h317.995c17.673 0 32-14.327 32-32s-14.327-32.001-32-32.001z"/></svg>